# This file uses centimeters as units for non-parametric coordinates.

mtllib bullet_star.mtl
g default
v 0.125886 0.039982 0.005207
v 0.041977 0.043091 -0.032283
v 0.000961 0.132176 -0.001195
v -0.024668 0.043549 -0.035242
v -0.125292 0.041708 -0.005946
v -0.045724 -0.019753 -0.035583
v -0.078396 -0.106400 -0.002480
v 0.007908 -0.059333 -0.032835
v 0.076841 -0.107466 0.004413
v 0.062110 -0.020494 -0.030795
v 0.125886 0.039982 0.005207
v 0.038991 0.043721 0.035060
v 0.000961 0.132176 -0.001195
v -0.027654 0.044179 0.032101
v -0.125292 0.041708 -0.005945
v -0.048710 -0.019122 0.031760
v -0.078396 -0.106400 -0.002479
v 0.004922 -0.058703 0.034509
v 0.076841 -0.107466 0.004413
v 0.059125 -0.019863 0.036548
v 0.001493 -0.000315 -0.033672
v -0.001493 0.000315 0.033672
vt 0.626409 0.064409
vt 0.548284 0.007647
vt 0.451716 0.007647
vt 0.373591 0.064409
vt 0.343750 0.156250
vt 0.373591 0.248091
vt 0.451716 0.304853
vt 0.548284 0.304853
vt 0.626409 0.248091
vt 0.656250 0.156250
vt 0.375000 0.312500
vt 0.400000 0.312500
vt 0.425000 0.312500
vt 0.450000 0.312500
vt 0.475000 0.312500
vt 0.500000 0.312500
vt 0.525000 0.312500
vt 0.550000 0.312500
vt 0.575000 0.312500
vt 0.600000 0.312500
vt 0.625000 0.312500
vt 0.375000 0.688440
vt 0.400000 0.688440
vt 0.425000 0.688440
vt 0.450000 0.688440
vt 0.475000 0.688440
vt 0.500000 0.688440
vt 0.525000 0.688440
vt 0.550000 0.688440
vt 0.575000 0.688440
vt 0.600000 0.688440
vt 0.625000 0.688440
vt 0.626409 0.751909
vt 0.548284 0.695147
vt 0.451716 0.695147
vt 0.373591 0.751909
vt 0.343750 0.843750
vt 0.373591 0.935591
vt 0.451716 0.992353
vt 0.548284 0.992353
vt 0.626409 0.935591
vt 0.656250 0.843750
vt 0.500000 0.150000
vt 0.500000 0.837500
vn 0.040400 0.999155 -0.007563
vn 0.040400 0.999155 -0.007563
vn 0.040400 0.999155 -0.007563
vn 0.040400 0.999155 -0.007563
vn 0.912535 0.407354 0.036645
vn 0.912535 0.407353 0.036645
vn 0.912535 0.407353 0.036645
vn 0.912535 0.407354 0.036645
vn -0.954908 0.293460 -0.045085
vn -0.954908 0.293460 -0.045085
vn -0.954908 0.293460 -0.045085
vn -0.954908 0.293460 -0.045085
vn -0.021290 0.999720 -0.010304
vn -0.021291 0.999720 -0.010304
vn -0.021291 0.999720 -0.010304
vn -0.021290 0.999720 -0.010304
vn -0.615817 -0.787637 -0.019929
vn -0.615817 -0.787637 -0.019929
vn -0.615817 -0.787637 -0.019929
vn -0.615817 -0.787637 -0.019929
vn -0.940285 0.337420 -0.044848
vn -0.940285 0.337420 -0.044848
vn -0.940285 0.337420 -0.044848
vn -0.940285 0.337420 -0.044848
vn 0.486617 -0.873109 0.029749
vn 0.486617 -0.873109 0.029749
vn 0.486617 -0.873109 0.029749
vn 0.486617 -0.873109 0.029749
vn -0.566087 -0.824162 -0.017382
vn -0.566087 -0.824162 -0.017382
vn -0.566087 -0.824162 -0.017382
vn -0.566087 -0.824162 -0.017382
vn 0.982170 0.183280 0.041830
vn 0.982170 0.183280 0.041830
vn 0.982170 0.183280 0.041830
vn 0.982170 0.183280 0.041830
vn 0.676574 -0.735450 0.036883
vn 0.676574 -0.735450 0.036883
vn 0.676574 -0.735450 0.036883
vn 0.676574 -0.735450 0.036883
vn 0.055385 -0.019722 -0.998270
vn 0.272014 0.085100 -0.958523
vn 0.030687 -0.004825 -0.999517
vn 0.011899 0.238102 -0.971167
vn 0.053349 -0.003936 -0.998568
vn -0.191282 0.068898 -0.979114
vn 0.048299 -0.019120 -0.998650
vn -0.129955 -0.188362 -0.973464
vn 0.059383 -0.007702 -0.998205
vn 0.169939 -0.221774 -0.960176
vn 0.044291 -0.009353 -0.998975
vn 0.186196 0.103222 0.977075
vn -0.033187 -0.001019 0.999449
vn -0.057886 0.013879 0.998227
vn -0.073890 0.256218 0.963791
vn -0.035228 0.014769 0.999270
vn -0.277117 0.087024 0.956887
vn -0.040278 -0.000415 0.999188
vn -0.215744 -0.170246 0.961494
vn -0.029189 0.011002 0.999513
vn 0.084122 -0.203652 0.975423
vn -0.044291 0.009353 0.998975
s off
g breast
usemtl player:lambert4SG
f 1/11/1 2/12/2 12/23/3 11/22/4
f 2/12/5 3/13/6 13/24/7 12/23/8
f 3/13/9 4/14/10 14/25/11 13/24/12
f 4/14/13 5/15/14 15/26/15 14/25/16
f 5/15/17 6/16/18 16/27/19 15/26/20
f 6/16/21 7/17/22 17/28/23 16/27/24
f 7/17/25 8/18/26 18/29/27 17/28/28
f 8/18/29 9/19/30 19/30/31 18/29/32
f 9/19/33 10/20/34 20/31/35 19/30/36
f 10/20/37 1/21/38 11/32/39 20/31/40
s 1
f 2/2/41 1/1/42 21/43/43
f 3/3/44 2/2/41 21/43/43
f 4/4/45 3/3/44 21/43/43
f 5/5/46 4/4/45 21/43/43
f 6/6/47 5/5/46 21/43/43
f 7/7/48 6/6/47 21/43/43
f 8/8/49 7/7/48 21/43/43
f 9/9/50 8/8/49 21/43/43
f 10/10/51 9/9/50 21/43/43
f 1/1/42 10/10/51 21/43/43
s 2
f 11/41/52 12/40/53 22/44/54
f 12/40/53 13/39/55 22/44/54
f 13/39/55 14/38/56 22/44/54
f 14/38/56 15/37/57 22/44/54
f 15/37/57 16/36/58 22/44/54
f 16/36/58 17/35/59 22/44/54
f 17/35/59 18/34/60 22/44/54
f 18/34/60 19/33/61 22/44/54
f 19/33/61 20/42/62 22/44/54
f 20/42/62 11/41/52 22/44/54
