# This file uses centimeters as units for non-parametric coordinates.

mtllib magicWand_stick1.mtl
g default
v -0.062478 3.342608 0.000000
v -0.259462 3.134332 0.000000
v -0.279352 3.151519 -0.040246
v -0.062478 3.376982 -0.040246
v -0.311534 3.179328 -0.024873
v -0.062478 3.526358 -0.024873
v -0.062478 3.376982 0.040246
v -0.279352 3.151519 0.040246
v -0.311534 3.179328 0.024873
v -0.062478 3.432600 0.024873
v 0.331369 2.669428 -0.040246
v 0.307713 2.686615 0.000000
v 0.369645 2.641619 -0.024873
v 0.331369 2.669428 0.040246
v 0.369645 2.641619 0.024873
v 0.278549 3.151519 -0.040246
v 0.258659 3.134332 0.000000
v 0.310731 3.179328 -0.024873
v 0.278549 3.151519 0.040246
v 0.061675 3.376982 -0.040246
v 0.061675 3.342608 0.000000
v 0.310731 3.179328 0.024873
v 0.061675 3.526358 -0.024873
v 0.061675 3.376982 0.040246
v 0.061675 3.432600 0.024873
v 0.126323 2.520454 0.040246
v 0.140944 2.475458 0.024873
v 0.117288 2.548263 0.000000
v 0.140944 2.475458 -0.024873
v 0.126323 2.520454 -0.040246
v -0.118091 2.548263 0.000000
v -0.127127 2.520454 0.040246
v -0.141747 2.475458 0.024873
v -0.127127 2.520454 -0.040246
v -0.141747 2.475458 -0.024873
v -0.308516 2.686615 0.000000
v -0.332172 2.669428 0.040246
v -0.370448 2.641619 0.024873
v -0.332172 2.669428 -0.040246
v -0.370448 2.641619 -0.024873
v 0.344045 2.798369 -0.040246
v 0.320579 3.019115 -0.040246
v 0.318718 2.798556 0.000000
v 0.295291 3.018934 0.000000
v 0.384998 2.797799 -0.024873
v 0.361820 3.018386 -0.024873
v 0.344045 2.798369 0.040246
v 0.320579 3.019115 0.040246
v 0.384998 2.797799 0.024873
v 0.361820 3.018386 0.024873
v -0.296094 3.018934 0.000000
v -0.319521 2.798556 0.000000
v -0.321382 3.019115 0.040246
v -0.344848 2.798369 0.040246
v -0.362623 3.018386 0.024873
v -0.385802 2.797799 0.024873
v -0.321382 3.019115 -0.040246
v -0.344848 2.798369 -0.040246
v -0.362623 3.018386 -0.024873
v -0.385802 2.797799 -0.024873
vt 0.227113 0.000000
vt 0.220773 0.200000
vt 0.212232 0.400000
vt 0.220773 0.800000
vt 0.300000 1.000000
vt 0.227113 1.000000
vt 0.212232 0.600000
vt 0.800000 1.000000
vt 0.260061 0.067213
vt 0.250000 0.037265
vt 0.239939 0.067213
vt 0.243782 0.115670
vt 0.256218 0.115670
vt 0.079227 0.200000
vt 0.000000 0.200000
vt 0.000000 0.000000
vt 0.072887 0.000000
vt 0.087768 0.400000
vt 0.000000 0.400000
vt 0.072887 1.000000
vt 0.000000 1.000000
vt 0.000000 0.800000
vt 0.079227 0.800000
vt 0.087768 0.600000
vt 0.000000 0.600000
vt 0.756218 0.115670
vt 0.760061 0.067213
vt 0.750000 0.037265
vt 0.739939 0.067213
vt 0.743782 0.115670
vt 0.700000 0.800000
vt 0.700000 0.600000
vt 0.700000 1.000000
vt 0.700000 0.400000
vt 0.700000 0.200000
vt 0.700000 0.000000
vt 0.600000 1.000000
vt 0.600000 0.800000
vt 0.600000 0.600000
vt 0.600000 0.200000
vt 0.600000 0.000000
vt 0.600000 0.400000
vt 0.500000 0.000000
vt 0.850005 0.000000
vt 0.948450 1.000000
vt 0.351550 0.000000
vt 0.449995 1.000000
vt 0.853492 0.200000
vt 0.800000 0.000000
vt 0.858091 0.400000
vt 0.800000 0.200000
vt 0.850005 1.000000
vt 0.800000 0.800000
vt 0.858091 0.600000
vt 0.800000 0.400000
vt 0.853492 0.800000
vt 0.800000 0.600000
vt 1.000000 0.200000
vt 0.948450 0.000000
vt 1.000000 0.000000
vt 1.000000 0.400000
vt 0.945071 0.200000
vt 1.000000 1.000000
vt 0.945071 0.800000
vt 1.000000 0.600000
vt 0.940138 0.400000
vt 1.000000 0.800000
vt 0.940138 0.600000
vt 0.351550 1.000000
vt 0.300000 0.800000
vt 0.354929 0.800000
vt 0.300000 0.600000
vt 0.354929 0.200000
vt 0.300000 0.000000
vt 0.359862 0.600000
vt 0.300000 0.400000
vt 0.359862 0.400000
vt 0.300000 0.200000
vt 0.500000 1.000000
vt 0.446508 0.800000
vt 0.500000 0.800000
vt 0.441909 0.600000
vt 0.500000 0.200000
vt 0.449995 0.000000
vt 0.500000 0.600000
vt 0.441909 0.400000
vt 0.500000 0.400000
vt 0.446508 0.200000
vn 0.614628 -0.586455 -0.527545
vn 0.691816 -0.488148 -0.532074
vn 0.680216 -0.504360 -0.531909
vn 0.614628 -0.586455 -0.527545
vn -0.170063 0.138408 -0.975665
vn -0.212039 0.132421 -0.968248
vn -0.197740 0.134495 -0.970984
vn -0.170063 0.138408 -0.975665
vn 0.614627 -0.586455 0.527545
vn 0.680216 -0.504360 0.531910
vn 0.691816 -0.488148 0.532074
vn 0.614627 -0.586455 0.527545
vn -0.659388 0.547140 0.515602
vn -0.770872 0.501793 0.392379
vn -0.770872 0.501793 0.392379
vn -0.659388 0.547140 0.515602
vn -0.253622 0.246838 0.935279
vn -0.279119 0.212019 0.936558
vn -0.287758 0.199966 0.936594
vn -0.253622 0.246838 0.935279
vn 1.000000 0.000000 0.000000
vn 1.000000 0.000000 0.000000
vn 1.000000 0.000000 0.000000
vn 1.000000 0.000000 0.000000
vn 1.000000 0.000000 0.000000
vn -0.614627 -0.586455 -0.527545
vn -0.680216 -0.504360 -0.531910
vn -0.691816 -0.488147 -0.532074
vn -0.614627 -0.586455 -0.527545
vn 0.170063 0.138408 -0.975665
vn 0.197740 0.134495 -0.970984
vn 0.212039 0.132421 -0.968248
vn 0.170063 0.138408 -0.975665
vn -0.614627 -0.586454 0.527546
vn -0.691816 -0.488147 0.532075
vn -0.680215 -0.504359 0.531910
vn -0.614627 -0.586454 0.527546
vn 0.659389 0.547140 0.515602
vn 0.770872 0.501792 0.392379
vn 0.770872 0.501792 0.392379
vn 0.659389 0.547140 0.515601
vn 0.253622 0.246838 0.935279
vn 0.287758 0.199966 0.936594
vn 0.279119 0.212018 0.936558
vn 0.253622 0.246838 0.935279
vn -1.000000 0.000000 0.000000
vn -1.000000 0.000000 0.000000
vn -1.000000 0.000000 0.000000
vn -1.000000 0.000000 0.000000
vn -1.000000 0.000000 0.000000
vn 0.248845 -0.183224 0.951055
vn 0.190028 -0.261550 0.946299
vn 0.190028 -0.261550 0.946299
vn 0.238832 -0.196912 0.950886
vn -0.483572 0.665580 0.568473
vn -0.483572 0.665580 0.568473
vn -0.483572 0.665580 0.568473
vn -0.483572 0.665580 0.568473
vn 0.587785 -0.809017 0.000000
vn 0.587785 -0.809017 0.000000
vn 0.587785 -0.809017 0.000000
vn 0.587785 -0.809017 0.000000
vn -0.483572 0.665580 -0.568472
vn -0.483572 0.665580 -0.568472
vn -0.483572 0.665580 -0.568472
vn -0.483572 0.665580 -0.568472
vn 0.238832 -0.196912 -0.950886
vn 0.190027 -0.261550 -0.946299
vn 0.190027 -0.261550 -0.946299
vn 0.248845 -0.183224 -0.951055
vn -0.000000 0.822702 0.568473
vn -0.000000 0.822702 0.568473
vn -0.000000 0.822702 0.568473
vn -0.000000 0.822702 0.568473
vn 0.000000 -0.323294 0.946298
vn 0.000000 -0.323294 0.946299
vn 0.000000 -0.323294 0.946298
vn 0.000000 -0.323294 0.946299
vn -0.000000 0.822703 -0.568472
vn -0.000000 0.822703 -0.568472
vn -0.000000 0.822703 -0.568472
vn -0.000000 0.822703 -0.568472
vn 0.000000 -1.000000 0.000000
vn 0.000000 -1.000000 0.000000
vn 0.000000 -1.000000 0.000000
vn 0.000000 -1.000000 0.000000
vn 0.000000 -0.323294 -0.946299
vn 0.000000 -0.323294 -0.946299
vn 0.000000 -0.323294 -0.946299
vn 0.000000 -0.323294 -0.946299
vn 0.483572 0.665580 0.568473
vn 0.483572 0.665580 0.568473
vn 0.483572 0.665580 0.568473
vn 0.483572 0.665580 0.568473
vn -0.190027 -0.261550 0.946299
vn -0.248845 -0.183224 0.951055
vn -0.238832 -0.196912 0.950886
vn -0.190027 -0.261550 0.946299
vn 0.483572 0.665580 -0.568472
vn 0.483572 0.665580 -0.568472
vn 0.483572 0.665580 -0.568472
vn 0.483572 0.665580 -0.568472
vn -0.587785 -0.809017 0.000000
vn -0.587785 -0.809017 0.000000
vn -0.587785 -0.809017 0.000000
vn -0.587785 -0.809017 0.000000
vn -0.190027 -0.261550 -0.946299
vn -0.238832 -0.196912 -0.950886
vn -0.248845 -0.183224 -0.951055
vn -0.190027 -0.261550 -0.946299
vn 0.350897 0.009333 -0.936368
vn 0.350032 0.071188 -0.934029
vn 0.350235 0.061724 -0.934626
vn 0.350900 0.008617 -0.936373
vn -0.837223 -0.147044 -0.526722
vn -0.846071 -0.028482 -0.532309
vn -0.846057 -0.029088 -0.532298
vn -0.835812 -0.157690 -0.525883
vn -0.835812 -0.157690 0.525883
vn -0.846057 -0.029088 0.532298
vn -0.846071 -0.028482 0.532310
vn -0.837223 -0.147044 0.526722
vn 0.999784 0.020764 0.000000
vn 0.981576 0.191071 0.000000
vn 0.981576 0.191071 0.000000
vn 0.999784 0.020764 0.000000
vn 0.350032 0.071188 0.934029
vn 0.350897 0.009333 0.936368
vn 0.350900 0.008617 0.936373
vn 0.350235 0.061724 0.934626
vn 0.835812 -0.157691 -0.525883
vn 0.846057 -0.029088 -0.532298
vn 0.846071 -0.028482 -0.532309
vn 0.837223 -0.147045 -0.526722
vn 0.846057 -0.029088 0.532298
vn 0.835812 -0.157691 0.525883
vn 0.837223 -0.147044 0.526722
vn 0.846070 -0.028482 0.532310
vn -0.350897 0.009333 0.936368
vn -0.350032 0.071188 0.934029
vn -0.350235 0.061724 0.934626
vn -0.350901 0.008617 0.936373
vn -0.999784 0.020764 0.000000
vn -0.981576 0.191071 0.000000
vn -0.981576 0.191071 0.000000
vn -0.999784 0.020764 0.000000
vn -0.350032 0.071188 -0.934029
vn -0.350897 0.009333 -0.936368
vn -0.350900 0.008617 -0.936373
vn -0.350235 0.061724 -0.934626
vn -0.843268 0.082900 -0.531063
vn -0.843268 0.082900 -0.531063
vn -0.843267 0.082900 0.531063
vn -0.843267 0.082900 0.531063
vn 0.995203 -0.097836 0.000000
vn 0.995203 -0.097836 0.000000
vn 0.843267 0.082900 0.531063
vn 0.843267 0.082900 0.531063
vn 0.843268 0.082900 -0.531063
vn 0.843268 0.082900 -0.531063
vn -0.995203 -0.097836 0.000000
vn -0.995203 -0.097836 0.000000
s 1
g pTorus2 magicWand_stick1
usemtl initialShadingGroup
f 1/1/1 2/74/2 3/78/3 4/2/4
s 2
f 4/2/5 3/78/6 5/76/7 6/3/8
s 3
f 7/4/9 8/70/10 2/5/11 1/6/12
s 4
f 6/3/13 5/76/14 9/72/15 10/7/16
s 5
f 10/7/17 9/72/18 8/70/19 7/4/20
s off
f 7/9/21 1/10/22 4/11/23 6/12/24 10/13/25
s 6
f 20/14/26 16/15/27 17/16/28 21/17/29
s 7
f 23/18/30 18/19/31 16/15/32 20/14/33
s 8
f 21/20/34 17/21/35 19/22/36 24/23/37
s 9
f 25/24/38 22/25/39 18/19/40 23/18/41
s 10
f 24/23/42 19/22/43 22/25/44 25/24/45
s off
f 23/26/46 20/27/47 21/28/48 24/29/49 25/30/50
s 10
f 14/53/51 26/31/52 27/32/53 15/57/54
s off
f 12/8/55 28/33/56 26/31/57 14/53/58
f 15/57/59 27/32/60 29/34/61 13/55/62
f 11/51/63 30/35/64 28/36/65 12/49/66
s 7
f 13/55/67 29/34/68 30/35/69 11/51/70
s off
f 28/33/71 31/37/72 32/38/73 26/31/74
f 26/31/75 32/38/76 33/39/77 27/32/78
f 30/35/79 34/40/80 31/41/81 28/36/82
f 27/32/83 33/39/84 35/42/85 29/34/86
f 29/34/87 35/42/88 34/40/89 30/35/90
f 31/37/91 36/79/92 37/81/93 32/38/94
s 5
f 32/38/95 37/81/96 38/85/97 33/39/98
s off
f 34/40/99 39/83/100 36/43/101 31/41/102
f 33/39/103 38/85/104 40/87/105 35/42/106
s 2
f 35/42/107 40/87/108 39/83/109 34/40/110
s 7
f 41/48/111 42/62/112 46/66/113 45/50/114
s 6
f 42/62/115 41/48/116 43/44/117 44/59/118
s 8
f 44/45/119 43/52/120 47/56/121 48/64/122
s 9
f 45/50/123 46/66/124 50/68/125 49/54/126
s 10
f 48/64/127 47/56/128 49/54/129 50/68/130
s 1
f 51/46/131 52/84/132 58/88/133 57/73/134
s 3
f 52/47/135 51/69/136 53/71/137 54/80/138
s 5
f 54/80/139 53/71/140 55/75/141 56/82/142
s 4
f 56/82/143 55/75/144 59/77/145 60/86/146
s 2
f 57/73/147 58/88/148 60/86/149 59/77/150
s 6
f 41/48/116 11/51/151 12/49/152 43/44/117
s 7
f 45/50/114 13/55/67 11/51/70 41/48/111
s 8
f 43/52/120 12/8/153 14/53/154 47/56/121
s 9
f 49/54/126 15/57/155 13/55/156 45/50/123
s 10
f 47/56/128 14/53/51 15/57/54 49/54/129
s 6
f 16/58/27 42/62/115 44/59/118 17/60/28
s 7
f 18/61/31 46/66/113 42/62/112 16/58/32
s 8
f 17/63/35 44/45/119 48/64/122 19/67/36
s 9
f 22/65/39 50/68/125 46/66/124 18/61/40
s 10
f 19/67/43 48/64/127 50/68/130 22/65/44
s 3
f 51/69/136 2/5/11 8/70/10 53/71/137
s 5
f 53/71/140 8/70/19 9/72/18 55/75/141
s 1
f 57/73/134 3/78/3 2/74/2 51/46/131
s 4
f 55/75/144 9/72/15 5/76/14 59/77/145
s 2
f 59/77/150 5/76/7 3/78/6 57/73/147
s 3
f 36/79/157 52/47/135 54/80/138 37/81/158
s 5
f 37/81/96 54/80/139 56/82/142 38/85/97
s 1
f 39/83/159 58/88/133 52/84/132 36/43/160
s 4
f 38/85/161 56/82/143 60/86/146 40/87/162
s 2
f 40/87/108 60/86/149 58/88/148 39/83/109
