# This file uses centimeters as units for non-parametric coordinates.

mtllib magicWand_stick5_left.mtl
g default
v -0.068909 0.048121 0.007399
v -0.008481 0.084129 0.014619
v -0.015036 0.071198 0.024126
v -0.017505 0.095672 0.017234
v -0.029376 0.089543 0.028282
v -0.025282 0.103771 0.007464
v -0.041735 0.102413 0.012755
v -0.025956 0.102326 -0.007334
v -0.042806 0.100116 -0.010761
v -0.019019 0.092425 -0.016017
v -0.031782 0.084383 -0.024559
v -0.009695 0.081525 -0.012046
v -0.016965 0.067060 -0.018249
v -0.005005 0.077832 0.001588
v -0.009512 0.061193 0.003419
vt 0.623865 0.094679
vt 0.577944 0.152261
vt 0.455793 0.056317
vt 0.472182 0.128122
vt 0.321010 0.163803
vt 0.387368 0.195759
vt 0.321010 0.336197
vt 0.387368 0.304241
vt 0.455793 0.443683
vt 0.472182 0.371878
vt 0.623865 0.405322
vt 0.577944 0.347739
vt 0.698664 0.250000
vt 0.625013 0.250000
vt 0.301336 0.602673
vt 0.358097 0.602673
vt 0.414858 0.602673
vt 0.471619 0.602673
vt 0.528380 0.602673
vt 0.585142 0.602673
vt 0.641903 0.602673
vt 0.698664 0.602673
vt 0.500000 1.000000
vn 0.914728 -0.209777 0.345349
vn 0.914728 -0.209777 0.345349
vn 0.914728 -0.209777 0.345349
vn 0.914728 -0.209777 0.345349
vn 0.575056 0.275009 0.770507
vn 0.575055 0.275009 0.770507
vn 0.575055 0.275009 0.770507
vn 0.575055 0.275009 0.770507
vn 0.118500 0.808772 0.576060
vn 0.118500 0.808772 0.576060
vn 0.118500 0.808772 0.576060
vn 0.118500 0.808772 0.576060
vn -0.111143 0.989577 -0.091569
vn -0.111143 0.989577 -0.091569
vn -0.111143 0.989577 -0.091569
vn -0.111143 0.989577 -0.091569
vn 0.059053 0.681274 -0.729643
vn 0.059053 0.681274 -0.729643
vn 0.059053 0.681274 -0.729643
vn 0.059053 0.681274 -0.729643
vn 0.500927 0.116022 -0.857678
vn 0.500927 0.116022 -0.857678
vn 0.500926 0.116022 -0.857678
vn 0.500927 0.116022 -0.857678
vn 0.881738 -0.280533 -0.379262
vn 0.881738 -0.280533 -0.379262
vn 0.881738 -0.280533 -0.379262
vn 0.881738 -0.280533 -0.379262
vn 0.773463 0.626470 -0.096388
vn 0.773463 0.626470 -0.096388
vn 0.773463 0.626470 -0.096388
vn 0.773463 0.626470 -0.096388
vn 0.773463 0.626470 -0.096388
vn 0.773463 0.626470 -0.096388
vn 0.773463 0.626470 -0.096388
vn -0.149180 -0.327919 0.932853
vn -0.149180 -0.327919 0.932853
vn -0.149180 -0.327919 0.932853
vn -0.644818 0.251536 0.721761
vn -0.644818 0.251536 0.721761
vn -0.644818 0.251536 0.721761
vn -0.894120 0.447818 -0.003020
vn -0.894120 0.447818 -0.003020
vn -0.894120 0.447818 -0.003020
vn -0.709354 0.113124 -0.695715
vn -0.709354 0.113123 -0.695715
vn -0.709354 0.113124 -0.695715
vn -0.229655 -0.500516 -0.834711
vn -0.229655 -0.500517 -0.834711
vn -0.229655 -0.500516 -0.834711
vn 0.183756 -0.931018 -0.315340
vn 0.183756 -0.931018 -0.315340
vn 0.183756 -0.931018 -0.315340
vn 0.219570 -0.854205 0.471300
vn 0.219570 -0.854205 0.471300
vn 0.219570 -0.854205 0.471300
s off
g magicWand_stick5_left
usemtl initialShadingGroup
f 2/2/1 3/1/2 15/13/3 14/14/4
f 3/1/5 2/2/6 4/4/7 5/3/8
f 5/3/9 4/4/10 6/6/11 7/5/12
f 7/5/13 6/6/14 8/8/15 9/7/16
f 9/7/17 8/8/18 10/10/19 11/9/20
f 11/9/21 10/10/22 12/12/23 13/11/24
f 13/11/25 12/12/26 14/14/27 15/13/28
f 2/2/29 14/14/30 12/12/31 10/10/32 8/8/33 6/6/34 4/4/35
f 3/15/36 5/16/37 1/23/38
f 5/16/39 7/17/40 1/23/41
f 7/17/42 9/18/43 1/23/44
f 9/18/45 11/19/46 1/23/47
f 11/19/48 13/20/49 1/23/50
f 13/20/51 15/21/52 1/23/53
f 15/21/54 3/22/55 1/23/56
