# This file uses centimeters as units for non-parametric coordinates.

mtllib magicWand_stick3.mtl
g default
v 0.062384 2.376623 0.078731
v -0.022810 2.376623 0.098176
v -0.091130 2.376623 0.043692
v -0.091130 2.376623 -0.043692
v -0.022810 2.376623 -0.098176
v 0.062384 2.376623 -0.078731
v 0.100299 2.376623 -0.000000
v -0.000402 1.924608 0.000000
vt 0.655872 0.054542
vt 0.444370 0.006268
vt 0.274758 0.141529
vt 0.274758 0.358471
vt 0.444370 0.493732
vt 0.655872 0.445458
vt 0.750000 0.250000
vt 0.250000 0.500000
vt 0.321429 0.500000
vt 0.392857 0.500000
vt 0.464286 0.500000
vt 0.535714 0.500000
vt 0.607143 0.500000
vt 0.678571 0.500000
vt 0.750000 0.500000
vt 0.500000 1.000000
vn 0.000000 1.000000 -0.000000
vn 0.000000 1.000000 -0.000000
vn 0.000000 1.000000 -0.000000
vn 0.000000 1.000000 -0.000000
vn 0.000000 1.000000 -0.000000
vn 0.000000 1.000000 -0.000000
vn 0.000000 1.000000 -0.000000
vn 0.218170 -0.196794 0.955863
vn 0.218170 -0.196794 0.955863
vn 0.218170 -0.196794 0.955863
vn -0.611297 -0.196794 0.766543
vn -0.611297 -0.196794 0.766543
vn -0.611297 -0.196794 0.766543
vn -0.980445 -0.196794 0.000000
vn -0.980445 -0.196794 0.000000
vn -0.980445 -0.196794 0.000000
vn -0.611297 -0.196794 -0.766542
vn -0.611297 -0.196794 -0.766542
vn -0.611297 -0.196794 -0.766542
vn 0.218169 -0.196794 -0.955863
vn 0.218169 -0.196794 -0.955863
vn 0.218169 -0.196794 -0.955863
vn 0.883350 -0.196794 -0.425399
vn 0.883350 -0.196794 -0.425399
vn 0.883350 -0.196794 -0.425399
vn 0.883350 -0.196794 0.425399
vn 0.883350 -0.196794 0.425399
vn 0.883350 -0.196794 0.425399
s off
g magicWand_stick3
usemtl initialShadingGroup
f 1/1/1 7/7/2 6/6/3 5/5/4 4/4/5 3/3/6 2/2/7
f 1/8/8 2/9/9 8/16/10
f 2/9/11 3/10/12 8/16/13
f 3/10/14 4/11/15 8/16/16
f 4/11/17 5/12/18 8/16/19
f 5/12/20 6/13/21 8/16/22
f 6/13/23 7/14/24 8/16/25
f 7/14/26 1/15/27 8/16/28
