# This file uses centimeters as units for non-parametric coordinates.

mtllib magicWand_funnal_left4.mtl
g default
v -0.544558 2.540319 -0.040000
v -0.521981 2.507300 -0.000000
v -0.544558 2.540319 0.040000
v -0.567136 2.573338 0.000000
v -0.676634 2.450009 0.000000
v -0.544558 2.540319 0.040000
v -0.521981 2.507300 0.000000
v -0.544558 2.540319 -0.040000
v -0.567136 2.573338 -0.000000
v -0.412482 2.630629 0.000000
vt 0.500000 0.000000
vt 0.250000 0.250000
vt 0.500000 0.500000
vt 0.750000 0.250000
vt 0.250000 0.500000
vt 0.375000 0.500000
vt 0.500000 0.500000
vt 0.625000 0.500000
vt 0.750000 0.500000
vt 0.500000 1.000000
vt 0.500000 0.000000
vt 0.750000 0.250000
vt 0.500000 0.500000
vt 0.250000 0.250000
vt 0.250000 0.500000
vt 0.375000 0.500000
vt 0.500000 1.000000
vt 0.500000 0.500000
vt 0.625000 0.500000
vt 0.750000 0.500000
vn 0.825475 0.564439 0.000000
vn 0.825475 0.564439 0.000000
vn 0.825475 0.564439 0.000000
vn 0.825475 0.564439 0.000000
vn 0.249328 -0.673043 -0.696311
vn 0.249328 -0.673043 -0.696311
vn 0.249328 -0.673043 -0.696311
vn 0.249328 -0.673043 0.696311
vn 0.249328 -0.673043 0.696311
vn 0.249328 -0.673043 0.696311
vn -0.536721 0.476531 0.696311
vn -0.536721 0.476531 0.696311
vn -0.536721 0.476531 0.696311
vn -0.536721 0.476531 -0.696311
vn -0.536721 0.476531 -0.696311
vn -0.536721 0.476531 -0.696311
vn -0.825475 -0.564439 0.000000
vn -0.825475 -0.564439 0.000000
vn -0.825475 -0.564439 0.000000
vn -0.825475 -0.564439 0.000000
vn 0.536721 -0.476531 0.696311
vn 0.536721 -0.476531 0.696311
vn 0.536721 -0.476531 0.696311
vn 0.536721 -0.476531 -0.696311
vn 0.536721 -0.476531 -0.696311
vn 0.536721 -0.476531 -0.696311
vn -0.249328 0.673043 -0.696311
vn -0.249328 0.673043 -0.696311
vn -0.249328 0.673043 -0.696311
vn -0.249328 0.673043 0.696311
vn -0.249328 0.673043 0.696311
vn -0.249328 0.673043 0.696311
s off
g magicWand_Funnal_left4
usemtl initialShadingGroup
f 1/1/1 4/4/2 3/3/3 2/2/4
f 1/5/5 2/6/6 5/10/7
f 2/6/8 3/7/9 5/10/10
f 3/7/11 4/8/12 5/10/13
f 4/8/14 1/9/15 5/10/16
f 6/11/17 9/12/18 8/13/19 7/14/20
f 6/15/21 7/16/22 10/17/23
f 7/16/24 8/18/25 10/17/26
f 8/18/27 9/19/28 10/17/29
f 9/19/30 6/20/31 10/17/32
