# This file uses centimeters as units for non-parametric coordinates.

mtllib magicWand_stick2.mtl
g default
v 0.033853 2.337357 -0.042954
v -0.012627 2.337357 -0.053563
v -0.049901 2.337357 -0.023838
v -0.049901 2.337357 0.023838
v -0.012627 2.337357 0.053563
v 0.033853 2.337357 0.042954
v 0.054538 2.337357 0.000000
v 0.061323 2.372492 -0.077400
v -0.022431 2.372492 -0.096517
v -0.089596 2.372492 -0.042954
v -0.089596 2.372492 0.042954
v -0.022431 2.372492 0.096517
v 0.061323 2.372492 0.077400
v 0.098597 2.372492 0.000000
v 0.076568 2.423265 -0.096517
v -0.027872 2.423265 -0.120354
v -0.111626 2.423265 -0.053563
v -0.111626 2.423265 0.053563
v -0.027872 2.423265 0.120354
v 0.076568 2.423265 0.096517
v 0.123048 2.423265 0.000000
v 0.076568 2.479618 -0.096517
v -0.027872 2.479618 -0.120354
v -0.111626 2.479618 -0.053563
v -0.111626 2.479618 0.053563
v -0.027872 2.479618 0.120354
v 0.076568 2.479618 0.096517
v 0.123048 2.479618 0.000000
v 0.061323 2.530390 -0.077400
v -0.022431 2.530390 -0.096517
v -0.089596 2.530390 -0.042954
v -0.089596 2.530390 0.042954
v -0.022431 2.530390 0.096517
v 0.061323 2.530390 0.077400
v 0.098597 2.530390 0.000000
v 0.033853 2.565526 -0.042954
v -0.012627 2.565526 -0.053563
v -0.049901 2.565526 -0.023838
v -0.049901 2.565526 0.023838
v -0.012627 2.565526 0.053563
v 0.033853 2.565526 0.042954
v 0.054538 2.565526 0.000000
v -0.000402 2.324817 0.000000
v -0.000402 2.578065 0.000000
vt 0.000000 0.142857
vt 0.142857 0.142857
vt 0.285714 0.142857
vt 0.428571 0.142857
vt 0.571429 0.142857
vt 0.714286 0.142857
vt 0.857143 0.142857
vt 1.000000 0.142857
vt 0.000000 0.285714
vt 0.142857 0.285714
vt 0.285714 0.285714
vt 0.428571 0.285714
vt 0.571429 0.285714
vt 0.714286 0.285714
vt 0.857143 0.285714
vt 1.000000 0.285714
vt 0.000000 0.428571
vt 0.142857 0.428571
vt 0.285714 0.428571
vt 0.428571 0.428571
vt 0.571429 0.428571
vt 0.714286 0.428571
vt 0.857143 0.428571
vt 1.000000 0.428571
vt 0.000000 0.571429
vt 0.142857 0.571429
vt 0.285714 0.571429
vt 0.428571 0.571429
vt 0.571429 0.571429
vt 0.714286 0.571429
vt 0.857143 0.571429
vt 1.000000 0.571429
vt 0.000000 0.714286
vt 0.142857 0.714286
vt 0.285714 0.714286
vt 0.428571 0.714286
vt 0.571429 0.714286
vt 0.714286 0.714286
vt 0.857143 0.714286
vt 1.000000 0.714286
vt 0.000000 0.857143
vt 0.142857 0.857143
vt 0.285714 0.857143
vt 0.428571 0.857143
vt 0.571429 0.857143
vt 0.714286 0.857143
vt 0.857143 0.857143
vt 1.000000 0.857143
vt 0.071429 0.000000
vt 0.214286 0.000000
vt 0.357143 0.000000
vt 0.500000 0.000000
vt 0.642857 0.000000
vt 0.785714 0.000000
vt 0.928572 0.000000
vt 0.071429 1.000000
vt 0.214286 1.000000
vt 0.357143 1.000000
vt 0.500000 1.000000
vt 0.642857 1.000000
vt 0.785714 1.000000
vt 0.928572 1.000000
vn 0.147485 -0.748806 -0.646172
vn 0.147485 -0.748806 -0.646172
vn 0.147485 -0.748806 -0.646172
vn 0.147485 -0.748806 -0.646172
vn -0.413242 -0.748806 -0.518190
vn -0.413242 -0.748806 -0.518190
vn -0.413242 -0.748806 -0.518190
vn -0.413242 -0.748806 -0.518190
vn -0.662790 -0.748806 -0.000000
vn -0.662789 -0.748806 -0.000000
vn -0.662789 -0.748806 -0.000000
vn -0.662789 -0.748806 -0.000000
vn -0.413243 -0.748806 0.518190
vn -0.413243 -0.748806 0.518190
vn -0.413243 -0.748806 0.518190
vn -0.413243 -0.748806 0.518190
vn 0.147485 -0.748806 0.646172
vn 0.147485 -0.748806 0.646172
vn 0.147485 -0.748806 0.646172
vn 0.147485 -0.748806 0.646172
vn 0.597153 -0.748806 0.287574
vn 0.597153 -0.748806 0.287574
vn 0.597153 -0.748806 0.287574
vn 0.597153 -0.748806 0.287574
vn 0.597153 -0.748806 -0.287574
vn 0.597153 -0.748806 -0.287574
vn 0.597153 -0.748806 -0.287573
vn 0.597153 -0.748806 -0.287573
vn 0.204134 -0.398032 -0.894371
vn 0.204134 -0.398032 -0.894371
vn 0.204134 -0.398032 -0.894371
vn 0.204134 -0.398032 -0.894371
vn -0.571972 -0.398032 -0.717230
vn -0.571972 -0.398032 -0.717230
vn -0.571972 -0.398032 -0.717230
vn -0.571972 -0.398032 -0.717230
vn -0.917371 -0.398032 -0.000000
vn -0.917371 -0.398032 -0.000000
vn -0.917371 -0.398032 -0.000000
vn -0.917371 -0.398032 -0.000000
vn -0.571972 -0.398032 0.717230
vn -0.571972 -0.398032 0.717230
vn -0.571972 -0.398032 0.717230
vn -0.571972 -0.398032 0.717230
vn 0.204134 -0.398032 0.894371
vn 0.204134 -0.398032 0.894371
vn 0.204134 -0.398032 0.894371
vn 0.204134 -0.398032 0.894371
vn 0.826523 -0.398032 0.398033
vn 0.826523 -0.398032 0.398033
vn 0.826523 -0.398032 0.398033
vn 0.826523 -0.398032 0.398033
vn 0.826523 -0.398033 -0.398033
vn 0.826523 -0.398033 -0.398033
vn 0.826523 -0.398032 -0.398032
vn 0.826523 -0.398033 -0.398033
vn 0.222521 0.000000 -0.974928
vn 0.222521 0.000000 -0.974928
vn 0.222521 0.000000 -0.974928
vn 0.222521 0.000000 -0.974928
vn -0.623490 0.000000 -0.781832
vn -0.623490 0.000000 -0.781832
vn -0.623490 0.000000 -0.781832
vn -0.623490 0.000000 -0.781832
vn -1.000000 0.000000 -0.000000
vn -1.000000 0.000000 -0.000000
vn -1.000000 0.000000 -0.000000
vn -1.000000 0.000000 -0.000000
vn -0.623490 0.000000 0.781832
vn -0.623490 0.000000 0.781832
vn -0.623490 0.000000 0.781832
vn -0.623490 0.000000 0.781832
vn 0.222521 0.000000 0.974928
vn 0.222521 0.000000 0.974928
vn 0.222521 0.000000 0.974928
vn 0.222521 0.000000 0.974928
vn 0.900969 0.000000 0.433884
vn 0.900969 0.000000 0.433884
vn 0.900969 0.000000 0.433884
vn 0.900969 0.000000 0.433884
vn 0.900969 0.000000 -0.433884
vn 0.900969 0.000000 -0.433884
vn 0.900969 0.000000 -0.433884
vn 0.900969 0.000000 -0.433884
vn 0.204134 0.398032 -0.894371
vn 0.204134 0.398032 -0.894371
vn 0.204134 0.398032 -0.894371
vn 0.204134 0.398032 -0.894371
vn -0.571972 0.398032 -0.717230
vn -0.571972 0.398032 -0.717230
vn -0.571972 0.398032 -0.717230
vn -0.571972 0.398032 -0.717230
vn -0.917371 0.398032 -0.000000
vn -0.917371 0.398032 -0.000000
vn -0.917371 0.398032 -0.000000
vn -0.917371 0.398032 -0.000000
vn -0.571972 0.398032 0.717230
vn -0.571972 0.398032 0.717230
vn -0.571972 0.398032 0.717230
vn -0.571972 0.398032 0.717230
vn 0.204134 0.398032 0.894371
vn 0.204134 0.398032 0.894371
vn 0.204134 0.398032 0.894371
vn 0.204134 0.398032 0.894371
vn 0.826523 0.398032 0.398033
vn 0.826523 0.398032 0.398033
vn 0.826523 0.398032 0.398033
vn 0.826523 0.398032 0.398033
vn 0.826523 0.398033 -0.398033
vn 0.826523 0.398032 -0.398032
vn 0.826523 0.398033 -0.398033
vn 0.826523 0.398033 -0.398033
vn 0.147485 0.748806 -0.646172
vn 0.147485 0.748806 -0.646172
vn 0.147485 0.748806 -0.646172
vn 0.147485 0.748806 -0.646172
vn -0.413242 0.748806 -0.518190
vn -0.413242 0.748806 -0.518190
vn -0.413242 0.748806 -0.518190
vn -0.413242 0.748806 -0.518190
vn -0.662790 0.748806 -0.000000
vn -0.662790 0.748806 -0.000000
vn -0.662790 0.748806 -0.000000
vn -0.662789 0.748806 -0.000000
vn -0.413243 0.748806 0.518190
vn -0.413243 0.748806 0.518190
vn -0.413242 0.748806 0.518190
vn -0.413242 0.748806 0.518190
vn 0.147485 0.748806 0.646172
vn 0.147485 0.748806 0.646172
vn 0.147485 0.748806 0.646172
vn 0.147485 0.748806 0.646172
vn 0.597153 0.748806 0.287574
vn 0.597153 0.748806 0.287574
vn 0.597153 0.748806 0.287574
vn 0.597153 0.748806 0.287574
vn 0.597153 0.748806 -0.287573
vn 0.597153 0.748806 -0.287573
vn 0.597153 0.748806 -0.287574
vn 0.597153 0.748806 -0.287574
vn 0.054645 -0.969378 -0.239416
vn 0.054645 -0.969378 -0.239416
vn 0.054645 -0.969378 -0.239416
vn -0.153113 -0.969378 -0.191997
vn -0.153113 -0.969378 -0.191997
vn -0.153113 -0.969378 -0.191997
vn -0.245574 -0.969378 0.000000
vn -0.245574 -0.969378 0.000000
vn -0.245574 -0.969378 0.000000
vn -0.153113 -0.969378 0.191997
vn -0.153113 -0.969378 0.191997
vn -0.153113 -0.969378 0.191997
vn 0.054645 -0.969378 0.239416
vn 0.054645 -0.969378 0.239416
vn 0.054645 -0.969378 0.239416
vn 0.221254 -0.969378 0.106550
vn 0.221254 -0.969378 0.106550
vn 0.221254 -0.969378 0.106550
vn 0.221254 -0.969378 -0.106550
vn 0.221254 -0.969378 -0.106550
vn 0.221254 -0.969378 -0.106550
vn 0.054645 0.969378 -0.239416
vn 0.054645 0.969378 -0.239416
vn 0.054645 0.969378 -0.239416
vn -0.153113 0.969378 -0.191997
vn -0.153113 0.969378 -0.191997
vn -0.153113 0.969378 -0.191997
vn -0.245574 0.969378 0.000000
vn -0.245574 0.969378 0.000000
vn -0.245574 0.969378 0.000000
vn -0.153113 0.969378 0.191997
vn -0.153113 0.969378 0.191997
vn -0.153113 0.969378 0.191997
vn 0.054645 0.969378 0.239416
vn 0.054645 0.969378 0.239416
vn 0.054645 0.969378 0.239416
vn 0.221254 0.969378 0.106550
vn 0.221254 0.969378 0.106550
vn 0.221254 0.969378 0.106550
vn 0.221254 0.969378 -0.106550
vn 0.221254 0.969378 -0.106550
vn 0.221254 0.969378 -0.106550
s off
g magicWand_stick2
usemtl initialShadingGroup
f 1/1/1 2/2/2 9/10/3 8/9/4
f 2/2/5 3/3/6 10/11/7 9/10/8
f 3/3/9 4/4/10 11/12/11 10/11/12
f 4/4/13 5/5/14 12/13/15 11/12/16
f 5/5/17 6/6/18 13/14/19 12/13/20
f 6/6/21 7/7/22 14/15/23 13/14/24
f 7/7/25 1/8/26 8/16/27 14/15/28
f 8/9/29 9/10/30 16/18/31 15/17/32
f 9/10/33 10/11/34 17/19/35 16/18/36
f 10/11/37 11/12/38 18/20/39 17/19/40
f 11/12/41 12/13/42 19/21/43 18/20/44
f 12/13/45 13/14/46 20/22/47 19/21/48
f 13/14/49 14/15/50 21/23/51 20/22/52
f 14/15/53 8/16/54 15/24/55 21/23/56
f 15/17/57 16/18/58 23/26/59 22/25/60
f 16/18/61 17/19/62 24/27/63 23/26/64
f 17/19/65 18/20/66 25/28/67 24/27/68
f 18/20/69 19/21/70 26/29/71 25/28/72
f 19/21/73 20/22/74 27/30/75 26/29/76
f 20/22/77 21/23/78 28/31/79 27/30/80
f 21/23/81 15/24/82 22/32/83 28/31/84
f 22/25/85 23/26/86 30/34/87 29/33/88
f 23/26/89 24/27/90 31/35/91 30/34/92
f 24/27/93 25/28/94 32/36/95 31/35/96
f 25/28/97 26/29/98 33/37/99 32/36/100
f 26/29/101 27/30/102 34/38/103 33/37/104
f 27/30/105 28/31/106 35/39/107 34/38/108
f 28/31/109 22/32/110 29/40/111 35/39/112
f 29/33/113 30/34/114 37/42/115 36/41/116
f 30/34/117 31/35/118 38/43/119 37/42/120
f 31/35/121 32/36/122 39/44/123 38/43/124
f 32/36/125 33/37/126 40/45/127 39/44/128
f 33/37/129 34/38/130 41/46/131 40/45/132
f 34/38/133 35/39/134 42/47/135 41/46/136
f 35/39/137 29/40/138 36/48/139 42/47/140
f 2/2/141 1/1/142 43/49/143
f 3/3/144 2/2/145 43/50/146
f 4/4/147 3/3/148 43/51/149
f 5/5/150 4/4/151 43/52/152
f 6/6/153 5/5/154 43/53/155
f 7/7/156 6/6/157 43/54/158
f 1/8/159 7/7/160 43/55/161
f 36/41/162 37/42/163 44/56/164
f 37/42/165 38/43/166 44/57/167
f 38/43/168 39/44/169 44/58/170
f 39/44/171 40/45/172 44/59/173
f 40/45/174 41/46/175 44/60/176
f 41/46/177 42/47/178 44/61/179
f 42/47/180 36/48/181 44/62/182
