# This file uses centimeters as units for non-parametric coordinates.

mtllib magicWand_hexin_di.mtl
g default
v -0.168097 -2.189285 0.000000
v 0.000000 -2.189285 0.168097
v 0.168097 -2.189285 0.000000
v 0.000000 -2.189285 -0.168097
v 0.000000 -1.840382 0.000000
v 0.000000 -2.538188 0.000000
vt 0.000000 0.000000
vt 1.000000 0.000000
vt 0.500000 1.000000
vt 0.000000 0.000000
vt 1.000000 0.000000
vt 0.000000 0.000000
vt 1.000000 0.000000
vt 0.000000 0.000000
vt 1.000000 0.000000
vt 1.000000 1.000000
vt 0.000000 1.000000
vt 0.500000 0.000000
vt 1.000000 1.000000
vt 0.000000 1.000000
vt 1.000000 1.000000
vt 0.000000 1.000000
vt 1.000000 1.000000
vt 0.000000 1.000000
vn -0.669332 0.322475 0.669332
vn -0.669332 0.322475 0.669332
vn -0.669332 0.322475 0.669332
vn 0.669331 0.322475 0.669332
vn 0.669331 0.322475 0.669332
vn 0.669331 0.322475 0.669332
vn 0.669331 0.322475 -0.669332
vn 0.669331 0.322475 -0.669332
vn 0.669331 0.322475 -0.669332
vn -0.669331 0.322475 -0.669332
vn -0.669331 0.322475 -0.669332
vn -0.669331 0.322475 -0.669332
vn -0.669331 -0.322475 0.669332
vn -0.669331 -0.322475 0.669332
vn -0.669331 -0.322475 0.669332
vn 0.669331 -0.322475 0.669332
vn 0.669331 -0.322475 0.669332
vn 0.669331 -0.322475 0.669332
vn 0.669331 -0.322475 -0.669332
vn 0.669331 -0.322475 -0.669332
vn 0.669331 -0.322475 -0.669332
vn -0.669331 -0.322475 -0.669332
vn -0.669331 -0.322475 -0.669332
vn -0.669331 -0.322475 -0.669332
s off
g magicWand:hexin_di
usemtl initialShadingGroup
f 1/1/1 2/2/2 5/3/3
f 2/4/4 3/5/5 5/3/6
f 3/6/7 4/7/8 5/3/9
f 4/8/10 1/9/11 5/3/12
f 2/10/13 1/11/14 6/12/15
f 3/13/16 2/14/17 6/12/18
f 4/15/19 3/16/20 6/12/21
f 1/17/22 4/18/23 6/12/24
