# This file uses centimeters as units for non-parametric coordinates.

mtllib magicWand_funnal_right2.mtl
g default
v 0.667840 3.051960 -0.039996
v 0.674232 3.012656 0.000183
v 0.666761 3.052141 0.039996
v 0.660368 3.091445 -0.000183
v 0.509736 3.024314 -0.002062
v 0.666761 3.052141 0.039996
v 0.674232 3.012656 0.000183
v 0.667840 3.051960 -0.039996
v 0.660368 3.091445 -0.000183
v 0.824864 3.079787 0.002062
vt 0.500000 0.000000
vt 0.250000 0.250000
vt 0.500000 0.500000
vt 0.750000 0.250000
vt 0.250000 0.500000
vt 0.375000 0.500000
vt 0.500000 0.500000
vt 0.625000 0.500000
vt 0.750000 0.500000
vt 0.500000 1.000000
vt 0.500000 0.000000
vt 0.750000 0.250000
vt 0.500000 0.500000
vt 0.250000 0.250000
vt 0.250000 0.500000
vt 0.375000 0.500000
vt 0.500000 1.000000
vt 0.500000 0.500000
vt 0.625000 0.500000
vt 0.750000 0.500000
vn 0.984775 0.173354 0.012890
vn 0.984775 0.173354 0.012890
vn 0.984775 0.173354 0.012890
vn 0.984775 0.173354 0.012890
vn -0.041360 -0.717523 -0.695306
vn -0.041360 -0.717523 -0.695306
vn -0.041360 -0.717523 -0.695306
vn -0.060142 -0.714364 0.697185
vn -0.060142 -0.714364 0.697185
vn -0.060142 -0.714364 0.697185
vn -0.301495 0.657169 0.690818
vn -0.301495 0.657169 0.690818
vn -0.301495 0.657169 0.690818
vn -0.282712 0.654010 -0.701673
vn -0.282712 0.654010 -0.701673
vn -0.282712 0.654010 -0.701673
vn -0.984775 -0.173354 -0.012890
vn -0.984775 -0.173354 -0.012890
vn -0.984775 -0.173354 -0.012890
vn -0.984775 -0.173354 -0.012890
vn 0.282712 -0.654010 0.701673
vn 0.282712 -0.654010 0.701673
vn 0.282712 -0.654010 0.701673
vn 0.301495 -0.657169 -0.690818
vn 0.301495 -0.657169 -0.690818
vn 0.301495 -0.657169 -0.690818
vn 0.060142 0.714364 -0.697185
vn 0.060142 0.714364 -0.697185
vn 0.060142 0.714364 -0.697185
vn 0.041360 0.717523 0.695306
vn 0.041360 0.717523 0.695306
vn 0.041360 0.717523 0.695306
s off
g magicWand_Funnal_right2
usemtl initialShadingGroup
f 1/1/1 4/4/2 3/3/3 2/2/4
f 1/5/5 2/6/6 5/10/7
f 2/6/8 3/7/9 5/10/10
f 3/7/11 4/8/12 5/10/13
f 4/8/14 1/9/15 5/10/16
f 6/11/17 9/12/18 8/13/19 7/14/20
f 6/15/21 7/16/22 10/17/23
f 7/16/24 8/18/25 10/17/26
f 8/18/27 9/19/28 10/17/29
f 9/19/30 6/20/31 10/17/32
