# This file uses centimeters as units for non-parametric coordinates.

mtllib player_leg_right_2.mtl
g default
v -0.225429 0.686738 0.108262
v -0.133426 0.686738 0.078369
v -0.133426 0.686738 -0.018369
v -0.225429 0.686738 -0.048262
v -0.282290 0.686738 0.030000
v -0.241145 0.756738 0.156631
v -0.092281 0.756738 0.108262
v -0.092281 0.756738 -0.048262
v -0.241145 0.756738 -0.096631
v -0.333148 0.756738 0.030000
v -0.241145 0.843262 0.156631
v -0.092281 0.843262 0.108262
v -0.092281 0.843262 -0.048262
v -0.241145 0.843262 -0.096631
v -0.333148 0.843262 0.030000
v -0.225429 0.913262 0.108262
v -0.133426 0.913262 0.078369
v -0.133426 0.913262 -0.018369
v -0.225429 0.913262 -0.048262
v -0.282290 0.913262 0.030000
v -0.200000 0.660000 0.030000
v -0.200000 0.940000 0.030000
vt 0.000000 0.200000
vt 0.200000 0.200000
vt 0.400000 0.200000
vt 0.600000 0.200000
vt 0.800000 0.200000
vt 1.000000 0.200000
vt 0.000000 0.400000
vt 0.200000 0.400000
vt 0.400000 0.400000
vt 0.600000 0.400000
vt 0.800000 0.400000
vt 1.000000 0.400000
vt 0.000000 0.600000
vt 0.200000 0.600000
vt 0.400000 0.600000
vt 0.600000 0.600000
vt 0.800000 0.600000
vt 1.000000 0.600000
vt 0.000000 0.800000
vt 0.200000 0.800000
vt 0.400000 0.800000
vt 0.600000 0.800000
vt 0.800000 0.800000
vt 1.000000 0.800000
vt 0.100000 0.000000
vt 0.300000 0.000000
vt 0.500000 0.000000
vt 0.700000 0.000000
vt 0.900000 0.000000
vt 0.100000 1.000000
vt 0.300000 1.000000
vt 0.500000 1.000000
vt 0.700000 1.000000
vt 0.900000 1.000000
vn 0.266405 -0.506732 0.819909
vn 0.266405 -0.506732 0.819909
vn 0.266405 -0.506732 0.819909
vn 0.266405 -0.506732 0.819909
vn 0.862103 -0.506732 0.000000
vn 0.862103 -0.506732 0.000000
vn 0.862103 -0.506732 0.000000
vn 0.862103 -0.506732 0.000000
vn 0.266405 -0.506732 -0.819909
vn 0.266405 -0.506732 -0.819909
vn 0.266405 -0.506732 -0.819909
vn 0.266405 -0.506732 -0.819909
vn -0.697456 -0.506732 -0.506732
vn -0.697456 -0.506732 -0.506732
vn -0.697456 -0.506732 -0.506732
vn -0.697456 -0.506732 -0.506732
vn -0.697456 -0.506732 0.506732
vn -0.697456 -0.506732 0.506732
vn -0.697456 -0.506732 0.506731
vn -0.697456 -0.506732 0.506732
vn 0.309017 0.000000 0.951057
vn 0.309017 0.000000 0.951057
vn 0.309017 0.000000 0.951057
vn 0.309017 0.000000 0.951057
vn 1.000000 0.000000 0.000000
vn 1.000000 0.000000 0.000000
vn 1.000000 0.000000 0.000000
vn 1.000000 0.000000 0.000000
vn 0.309017 0.000000 -0.951057
vn 0.309017 0.000000 -0.951057
vn 0.309017 0.000000 -0.951057
vn 0.309017 0.000000 -0.951057
vn -0.809017 0.000000 -0.587785
vn -0.809017 0.000000 -0.587785
vn -0.809017 0.000000 -0.587785
vn -0.809017 0.000000 -0.587785
vn -0.809017 0.000000 0.587785
vn -0.809017 0.000000 0.587785
vn -0.809017 0.000000 0.587785
vn -0.809017 0.000000 0.587785
vn 0.266405 0.506732 0.819909
vn 0.266405 0.506732 0.819909
vn 0.266405 0.506732 0.819909
vn 0.266405 0.506732 0.819909
vn 0.862104 0.506732 0.000000
vn 0.862104 0.506732 0.000000
vn 0.862104 0.506732 0.000000
vn 0.862104 0.506732 0.000000
vn 0.266405 0.506732 -0.819909
vn 0.266405 0.506732 -0.819909
vn 0.266405 0.506732 -0.819909
vn 0.266405 0.506732 -0.819909
vn -0.697456 0.506732 -0.506732
vn -0.697456 0.506732 -0.506732
vn -0.697456 0.506732 -0.506732
vn -0.697456 0.506732 -0.506732
vn -0.697457 0.506732 0.506732
vn -0.697457 0.506732 0.506732
vn -0.697457 0.506732 0.506732
vn -0.697457 0.506732 0.506732
vn 0.115167 -0.927956 0.354448
vn 0.115167 -0.927956 0.354448
vn 0.115167 -0.927956 0.354448
vn 0.372689 -0.927956 0.000000
vn 0.372689 -0.927956 0.000000
vn 0.372689 -0.927956 0.000000
vn 0.115167 -0.927956 -0.354448
vn 0.115167 -0.927956 -0.354448
vn 0.115167 -0.927956 -0.354448
vn -0.301512 -0.927956 -0.219061
vn -0.301512 -0.927956 -0.219061
vn -0.301512 -0.927956 -0.219061
vn -0.301512 -0.927956 0.219061
vn -0.301512 -0.927956 0.219061
vn -0.301512 -0.927956 0.219061
vn 0.115167 0.927956 0.354448
vn 0.115167 0.927956 0.354448
vn 0.115167 0.927956 0.354448
vn 0.372689 0.927956 0.000000
vn 0.372689 0.927956 0.000000
vn 0.372689 0.927956 0.000000
vn 0.115167 0.927956 -0.354448
vn 0.115167 0.927956 -0.354448
vn 0.115167 0.927956 -0.354448
vn -0.301512 0.927956 -0.219061
vn -0.301512 0.927956 -0.219061
vn -0.301512 0.927956 -0.219061
vn -0.301512 0.927956 0.219061
vn -0.301512 0.927956 0.219061
vn -0.301512 0.927956 0.219061
s off
g player:leg_right_2
usemtl player:lambert2SG
f 6/7/1 1/1/2 2/2/3 7/8/4
f 7/8/5 2/2/6 3/3/7 8/9/8
f 8/9/9 3/3/10 4/4/11 9/10/12
f 9/10/13 4/4/14 5/5/15 10/11/16
f 10/11/17 5/5/18 1/6/19 6/12/20
f 11/13/21 6/7/22 7/8/23 12/14/24
f 12/14/25 7/8/26 8/9/27 13/15/28
f 13/15/29 8/9/30 9/10/31 14/16/32
f 14/16/33 9/10/34 10/11/35 15/17/36
f 15/17/37 10/11/38 6/12/39 11/18/40
f 16/19/41 11/13/42 12/14/43 17/20/44
f 17/20/45 12/14/46 13/15/47 18/21/48
f 18/21/49 13/15/50 14/16/51 19/22/52
f 19/22/53 14/16/54 15/17/55 20/23/56
f 20/23/57 15/17/58 11/18/59 16/24/60
f 2/2/61 1/1/62 21/25/63
f 3/3/64 2/2/65 21/26/66
f 4/4/67 3/3/68 21/27/69
f 5/5/70 4/4/71 21/28/72
f 1/6/73 5/5/74 21/29/75
f 16/19/76 17/20/77 22/30/78
f 17/20/79 18/21/80 22/31/81
f 18/21/82 19/22/83 22/32/84
f 19/22/85 20/23/86 22/33/87
f 20/23/88 16/24/89 22/34/90
