# This file uses centimeters as units for non-parametric coordinates.

mtllib player_leg_left_3.mtl
g default
v 0.157467 -0.001171 -0.004078
v 0.183754 -0.002836 0.014948
v 0.216246 -0.002836 0.014948
v 0.242533 -0.001171 -0.004078
v 0.252573 0.001522 -0.034862
v 0.242533 0.004215 -0.065647
v 0.216246 0.005880 -0.084672
v 0.183754 0.005880 -0.084672
v 0.157467 0.004215 -0.065647
v 0.147427 0.001522 -0.034862
v 0.119098 0.793355 0.093417
v 0.169098 0.790189 0.129606
v 0.230902 0.790189 0.129606
v 0.280902 0.793355 0.093417
v 0.300000 0.798478 0.034862
v 0.280902 0.803601 -0.023693
v 0.230902 0.806767 -0.059881
v 0.169098 0.806767 -0.059881
v 0.119098 0.803601 -0.023693
v 0.100000 0.798478 0.034862
v 0.200000 0.001522 -0.034862
v 0.200000 0.798478 0.034862
vt 0.626409 0.064409
vt 0.548284 0.007647
vt 0.451716 0.007647
vt 0.373591 0.064409
vt 0.343750 0.156250
vt 0.373591 0.248091
vt 0.451716 0.304853
vt 0.548284 0.304853
vt 0.626409 0.248091
vt 0.656250 0.156250
vt 0.375000 0.312500
vt 0.400000 0.312500
vt 0.425000 0.312500
vt 0.450000 0.312500
vt 0.475000 0.312500
vt 0.500000 0.312500
vt 0.525000 0.312500
vt 0.550000 0.312500
vt 0.575000 0.312500
vt 0.600000 0.312500
vt 0.625000 0.312500
vt 0.375000 0.688440
vt 0.400000 0.688440
vt 0.425000 0.688440
vt 0.450000 0.688440
vt 0.475000 0.688440
vt 0.500000 0.688440
vt 0.525000 0.688440
vt 0.550000 0.688440
vt 0.575000 0.688440
vt 0.600000 0.688440
vt 0.625000 0.688440
vt 0.626409 0.751909
vt 0.548284 0.695147
vt 0.451716 0.695147
vt 0.373591 0.751909
vt 0.343750 0.843750
vt 0.373591 0.935591
vt 0.451716 0.992353
vt 0.548284 0.992353
vt 0.626409 0.935591
vt 0.656250 0.843750
vt 0.500000 0.150000
vt 0.500000 0.837500
vn -0.586853 -0.126477 0.799754
vn -0.586853 -0.126477 0.799754
vn -0.586853 -0.126477 0.799754
vn -0.586853 -0.126477 0.799754
vn 0.000000 -0.143096 0.989709
vn 0.000000 -0.143096 0.989709
vn 0.000000 -0.143096 0.989709
vn 0.000000 -0.143096 0.989709
vn 0.586853 -0.126477 0.799754
vn 0.586853 -0.126477 0.799754
vn 0.586853 -0.126477 0.799754
vn 0.586853 -0.126477 0.799754
vn 0.949549 -0.082968 0.302446
vn 0.949549 -0.082968 0.302447
vn 0.949549 -0.082968 0.302447
vn 0.949549 -0.082968 0.302446
vn 0.949548 -0.029188 -0.312259
vn 0.949548 -0.029188 -0.312259
vn 0.949548 -0.029188 -0.312259
vn 0.949548 -0.029188 -0.312259
vn 0.586853 0.014321 -0.809567
vn 0.586853 0.014321 -0.809567
vn 0.586853 0.014321 -0.809567
vn 0.586853 0.014321 -0.809566
vn 0.000000 0.030939 -0.999521
vn 0.000000 0.030939 -0.999521
vn 0.000000 0.030939 -0.999521
vn 0.000000 0.030939 -0.999521
vn -0.586853 0.014321 -0.809567
vn -0.586853 0.014321 -0.809567
vn -0.586853 0.014321 -0.809567
vn -0.586853 0.014321 -0.809567
vn -0.949548 -0.029188 -0.312259
vn -0.949548 -0.029188 -0.312259
vn -0.949548 -0.029188 -0.312259
vn -0.949548 -0.029188 -0.312259
vn -0.949549 -0.082968 0.302446
vn -0.949549 -0.082968 0.302447
vn -0.949549 -0.082968 0.302447
vn -0.949549 -0.082968 0.302446
vn -0.000000 -0.996195 -0.087156
vn -0.000000 -0.996195 -0.087156
vn -0.000000 -0.996195 -0.087156
vn -0.000000 -0.996195 -0.087156
vn -0.000000 -0.996195 -0.087156
vn -0.000000 -0.996195 -0.087156
vn -0.000000 -0.996195 -0.087156
vn -0.000000 -0.996195 -0.087156
vn -0.000000 -0.996195 -0.087156
vn -0.000000 -0.996195 -0.087156
vn -0.000000 -0.996195 -0.087156
vn 0.000000 0.996195 0.087156
vn 0.000000 0.996195 0.087156
vn 0.000000 0.996195 0.087156
vn 0.000000 0.996195 0.087156
vn 0.000000 0.996195 0.087156
vn 0.000000 0.996195 0.087157
vn -0.000000 0.996195 0.087156
vn -0.000000 0.996195 0.087155
vn 0.000001 0.996195 0.087155
vn 0.000000 0.996195 0.087156
vn 0.000000 0.996195 0.087157
s off
g player:leg_left_3
usemtl player:lambert2SG
f 11/22/1 1/11/2 2/12/3 12/23/4
f 12/23/5 2/12/6 3/13/7 13/24/8
f 13/24/9 3/13/10 4/14/11 14/25/12
f 14/25/13 4/14/14 5/15/15 15/26/16
f 15/26/17 5/15/18 6/16/19 16/27/20
f 16/27/21 6/16/22 7/17/23 17/28/24
f 17/28/25 7/17/26 8/18/27 18/29/28
f 18/29/29 8/18/30 9/19/31 19/30/32
f 19/30/33 9/19/34 10/20/35 20/31/36
f 20/31/37 10/20/38 1/21/39 11/32/40
s 1
f 2/2/41 1/1/42 21/43/43 3/3/44
f 4/4/45 3/3/44 21/43/43
f 5/5/46 4/4/45 21/43/43 6/6/47
f 7/7/48 6/6/47 21/43/43 8/8/49
f 9/9/50 8/8/49 21/43/43
f 10/10/51 9/9/50 21/43/43 1/1/42
s 2
f 11/41/52 12/40/53 22/44/54
f 22/44/54 12/40/53 13/39/55 14/38/56
f 22/44/54 14/38/56 15/37/57 16/36/58
f 16/36/58 17/35/59 22/44/54
f 22/44/54 17/35/59 18/34/60 19/33/61
f 22/44/54 19/33/61 20/42/62 11/41/52
